{
  "accessors": [
    {
      "bufferView": 0,
      "componentType": 5123,
      "count": 132,
      "type": "SCALAR"
    },
    {
      "bufferView": 1,
      "componentType": 5126,
      "count": 48,
      "min": [
        -0.12818680703639985,
        -0.4547119736671448,
        -0.013047585263848305
      ],
      "max": [
        0.01506899856030941,
        -0.4542401432991028,
        0.01158137060701847
      ],
      "type": "VEC3"
    },
    {
      "bufferView": 2,
      "componentType": 5126,
      "count": 48,
      "type": "VEC3"
    },
    {
      "bufferView": 3,
      "componentType": 5126,
      "count": 48,
      "type": "VEC2"
    },
    {
      "bufferView": 4,
      "componentType": 5126,
      "count": 48,
      "type": "VEC2"
    },
    {
      "bufferView": 5,
      "componentType": 5123,
      "count": 48,
      "type": "VEC4"
    },
    {
      "bufferView": 6,
      "componentType": 5126,
      "count": 48,
      "type": "VEC4"
    },
    {
      "bufferView": 7,
      "componentType": 5123,
      "count": 18141,
      "type": "SCALAR"
    },
    {
      "bufferView": 8,
      "componentType": 5126,
      "count": 5500,
      "min": [
        -0.21216951310634614,
        -0.459909588098526,
        -0.028196776285767556
      ],
      "max": [
        0.21622490882873536,
        0.4472030997276306,
        0.0199777539819479
      ],
      "type": "VEC3"
    },
    {
      "bufferView": 9,
      "componentType": 5126,
      "count": 5500,
      "type": "VEC3"
    },
    {
      "bufferView": 10,
      "componentType": 5126,
      "count": 5500,
      "type": "VEC2"
    },
    {
      "bufferView": 11,
      "componentType": 5126,
      "count": 5500,
      "type": "VEC2"
    },
    {
      "bufferView": 12,
      "componentType": 5123,
      "count": 5500,
      "type": "VEC4"
    },
    {
      "bufferView": 13,
      "componentType": 5126,
      "count": 5500,
      "type": "VEC4"
    },
    {
      "bufferView": 14,
      "componentType": 5123,
      "count": 270,
      "type": "SCALAR"
    },
    {
      "bufferView": 15,
      "componentType": 5126,
      "count": 96,
      "min": [
        -0.1511530727148056,
        0.2564082145690918,
        -0.0309415552765131
      ],
      "max": [
        0.009810535237193108,
        0.4230126440525055,
        0.014081329107284546
      ],
      "type": "VEC3"
    },
    {
      "bufferView": 16,
      "componentType": 5126,
      "count": 96,
      "type": "VEC3"
    },
    {
      "bufferView": 17,
      "componentType": 5126,
      "count": 96,
      "type": "VEC2"
    },
    {
      "bufferView": 18,
      "componentType": 5126,
      "count": 96,
      "type": "VEC2"
    },
    {
      "bufferView": 19,
      "componentType": 5123,
      "count": 96,
      "type": "VEC4"
    },
    {
      "bufferView": 20,
      "componentType": 5126,
      "count": 96,
      "type": "VEC4"
    },
    {
      "bufferView": 21,
      "componentType": 5123,
      "count": 4890,
      "type": "SCALAR"
    },
    {
      "bufferView": 22,
      "componentType": 5126,
      "count": 1297,
      "min": [
        -0.20917733013629914,
        -0.45691725611686709,
        -0.032289426773786548
      ],
      "max": [
        0.21323262155056,
        0.44421055912971499,
        -0.007819758728146553
      ],
      "type": "VEC3"
    },
    {
      "bufferView": 23,
      "componentType": 5126,
      "count": 1297,
      "type": "VEC3"
    },
    {
      "bufferView": 24,
      "componentType": 5126,
      "count": 1297,
      "type": "VEC2"
    },
    {
      "bufferView": 25,
      "componentType": 5126,
      "count": 1297,
      "type": "VEC2"
    },
    {
      "bufferView": 26,
      "componentType": 5123,
      "count": 1297,
      "type": "VEC4"
    },
    {
      "bufferView": 27,
      "componentType": 5126,
      "count": 1297,
      "type": "VEC4"
    },
    {
      "bufferView": 28,
      "componentType": 5123,
      "count": 10764,
      "type": "SCALAR"
    },
    {
      "bufferView": 29,
      "componentType": 5126,
      "count": 3592,
      "min": [
        -0.21403829753398896,
        -0.459909588098526,
        -0.02215447835624218
      ],
      "max": [
        0.21746096014976502,
        0.4472030997276306,
        0.0199777539819479
      ],
      "type": "VEC3"
    },
    {
      "bufferView": 30,
      "componentType": 5126,
      "count": 3592,
      "type": "VEC3"
    },
    {
      "bufferView": 31,
      "componentType": 5126,
      "count": 3592,
      "type": "VEC2"
    },
    {
      "bufferView": 32,
      "componentType": 5126,
      "count": 3592,
      "type": "VEC2"
    },
    {
      "bufferView": 33,
      "componentType": 5123,
      "count": 3592,
      "type": "VEC4"
    },
    {
      "bufferView": 34,
      "componentType": 5126,
      "count": 3592,
      "type": "VEC4"
    },
    {
      "bufferView": 35,
      "componentType": 5123,
      "count": 738,
      "type": "SCALAR"
    },
    {
      "bufferView": 36,
      "componentType": 5126,
      "count": 254,
      "min": [
        -0.20534729957580567,
        -0.45157554745674136,
        -0.024645572528243066
      ],
      "max": [
        0.2095104604959488,
        0.43943390250205996,
        -0.019178299233317376
      ],
      "type": "VEC3"
    },
    {
      "bufferView": 37,
      "componentType": 5126,
      "count": 254,
      "type": "VEC3"
    },
    {
      "bufferView": 38,
      "componentType": 5126,
      "count": 254,
      "type": "VEC2"
    },
    {
      "bufferView": 39,
      "componentType": 5126,
      "count": 254,
      "type": "VEC2"
    },
    {
      "bufferView": 40,
      "componentType": 5123,
      "count": 254,
      "type": "VEC4"
    },
    {
      "bufferView": 41,
      "componentType": 5126,
      "count": 254,
      "type": "VEC4"
    },
    {
      "bufferView": 42,
      "componentType": 5123,
      "count": 636,
      "type": "SCALAR"
    },
    {
      "bufferView": 43,
      "componentType": 5126,
      "count": 252,
      "min": [
        -0.19136327505111695,
        -0.43875086307525637,
        0.012759091332554818
      ],
      "max": [
        0.19541870057582856,
        0.42566293478012087,
        0.014825940132141114
      ],
      "type": "VEC3"
    },
    {
      "bufferView": 44,
      "componentType": 5126,
      "count": 252,
      "type": "VEC3"
    },
    {
      "bufferView": 45,
      "componentType": 5126,
      "count": 252,
      "type": "VEC2"
    },
    {
      "bufferView": 46,
      "componentType": 5126,
      "count": 252,
      "type": "VEC2"
    },
    {
      "bufferView": 47,
      "componentType": 5123,
      "count": 252,
      "type": "VEC4"
    },
    {
      "bufferView": 48,
      "componentType": 5126,
      "count": 252,
      "type": "VEC4"
    },
    {
      "bufferView": 49,
      "componentType": 5126,
      "count": 2,
      "min": [
        0.0416666679084301
      ],
      "max": [
        3.2083332538604738
      ],
      "type": "SCALAR"
    },
    {
      "bufferView": 50,
      "componentType": 5126,
      "count": 2,
      "type": "VEC3"
    },
    {
      "bufferView": 51,
      "componentType": 5126,
      "count": 2,
      "min": [
        0.0416666679084301
      ],
      "max": [
        3.2083332538604738
      ],
      "type": "SCALAR"
    },
    {
      "bufferView": 52,
      "componentType": 5126,
      "count": 2,
      "type": "VEC4"
    },
    {
      "bufferView": 53,
      "componentType": 5126,
      "count": 2,
      "min": [
        0.0416666679084301
      ],
      "max": [
        3.2083332538604738
      ],
      "type": "SCALAR"
    },
    {
      "bufferView": 54,
      "componentType": 5126,
      "count": 2,
      "type": "VEC3"
    },
    {
      "bufferView": 55,
      "componentType": 5126,
      "count": 77,
      "min": [
        0.0416666679084301
      ],
      "max": [
        3.2083332538604738
      ],
      "type": "SCALAR"
    },
    {
      "bufferView": 56,
      "componentType": 5126,
      "count": 77,
      "type": "VEC4"
    },
    {
      "bufferView": 57,
      "componentType": 5126,
      "count": 2,
      "min": [
        0.0416666679084301
      ],
      "max": [
        3.2083332538604738
      ],
      "type": "SCALAR"
    },
    {
      "bufferView": 58,
      "componentType": 5126,
      "count": 2,
      "type": "VEC3"
    },
    {
      "bufferView": 59,
      "componentType": 5126,
      "count": 2,
      "min": [
        0.0416666679084301
      ],
      "max": [
        3.2083332538604738
      ],
      "type": "SCALAR"
    },
    {
      "bufferView": 60,
      "componentType": 5126,
      "count": 2,
      "type": "VEC4"
    },
    {
      "bufferView": 61,
      "componentType": 5126,
      "count": 2,
      "min": [
        0.0416666679084301
      ],
      "max": [
        3.2083332538604738
      ],
      "type": "SCALAR"
    },
    {
      "bufferView": 62,
      "componentType": 5126,
      "count": 2,
      "type": "VEC3"
    },
    {
      "bufferView": 63,
      "componentType": 5126,
      "count": 77,
      "min": [
        0.0416666679084301
      ],
      "max": [
        3.2083332538604738
      ],
      "type": "SCALAR"
    },
    {
      "bufferView": 64,
      "componentType": 5126,
      "count": 77,
      "type": "VEC4"
    },
    {
      "bufferView": 65,
      "componentType": 5126,
      "count": 1,
      "type": "MAT4"
    }
  ],
  "animations": [
    {
      "name": "BackToFront",
      "channels": [
        {
          "sampler": 0,
          "target": {
            "node": 0,
            "path": "translation"
          }
        },
        {
          "sampler": 1,
          "target": {
            "node": 0,
            "path": "rotation"
          }
        },
        {
          "sampler": 2,
          "target": {
            "node": 0,
            "path": "scale"
          }
        },
        {
          "sampler": 3,
          "target": {
            "node": 2,
            "path": "rotation"
          }
        }
      ],
      "samplers": [
        {
          "input": 49,
          "output": 50,
          "interpolation": "STEP"
        },
        {
          "input": 51,
          "output": 52,
          "interpolation": "STEP"
        },
        {
          "input": 53,
          "output": 54,
          "interpolation": "STEP"
        },
        {
          "input": 55,
          "output": 56,
          "interpolation": "LINEAR"
        }
      ]
    },
    {
      "name": "FrontToBack",
      "channels": [
        {
          "sampler": 0,
          "target": {
            "node": 0,
            "path": "translation"
          }
        },
        {
          "sampler": 1,
          "target": {
            "node": 0,
            "path": "rotation"
          }
        },
        {
          "sampler": 2,
          "target": {
            "node": 0,
            "path": "scale"
          }
        },
        {
          "sampler": 3,
          "target": {
            "node": 2,
            "path": "rotation"
          }
        }
      ],
      "samplers": [
        {
          "input": 57,
          "output": 58,
          "interpolation": "STEP"
        },
        {
          "input": 59,
          "output": 60,
          "interpolation": "STEP"
        },
        {
          "input": 61,
          "output": 62,
          "interpolation": "STEP"
        },
        {
          "input": 63,
          "output": 64,
          "interpolation": "LINEAR"
        }
      ]
    }
  ],
  "asset": {
    "version": "2.0"
  },
  "bufferViews": [
    {
      "buffer": 0,
      "byteLength": 264,
      "target": 34963
    },
    {
      "buffer": 0,
      "byteLength": 576,
      "byteOffset": 264,
      "target": 34962
    },
    {
      "buffer": 0,
      "byteLength": 576,
      "byteOffset": 840,
      "target": 34962
    },
    {
      "buffer": 0,
      "byteLength": 384,
      "byteOffset": 1416,
      "target": 34962
    },
    {
      "buffer": 0,
      "byteLength": 384,
      "byteOffset": 1800,
      "target": 34962
    },
    {
      "buffer": 0,
      "byteLength": 384,
      "byteOffset": 2184,
      "target": 34962
    },
    {
      "buffer": 0,
      "byteLength": 768,
      "byteOffset": 2568,
      "target": 34962
    },
    {
      "buffer": 0,
      "byteLength": 36282,
      "byteOffset": 3336,
      "target": 34963
    },
    {
      "buffer": 0,
      "byteLength": 66000,
      "byteOffset": 39620,
      "target": 34962
    },
    {
      "buffer": 0,
      "byteLength": 66000,
      "byteOffset": 105620,
      "target": 34962
    },
    {
      "buffer": 0,
      "byteLength": 44000,
      "byteOffset": 171620,
      "target": 34962
    },
    {
      "buffer": 0,
      "byteLength": 44000,
      "byteOffset": 215620,
      "target": 34962
    },
    {
      "buffer": 0,
      "byteLength": 44000,
      "byteOffset": 259620,
      "target": 34962
    },
    {
      "buffer": 0,
      "byteLength": 88000,
      "byteOffset": 303620,
      "target": 34962
    },
    {
      "buffer": 0,
      "byteLength": 540,
      "byteOffset": 391620,
      "target": 34963
    },
    {
      "buffer": 0,
      "byteLength": 1152,
      "byteOffset": 392160,
      "target": 34962
    },
    {
      "buffer": 0,
      "byteLength": 1152,
      "byteOffset": 393312,
      "target": 34962
    },
    {
      "buffer": 0,
      "byteLength": 768,
      "byteOffset": 394464,
      "target": 34962
    },
    {
      "buffer": 0,
      "byteLength": 768,
      "byteOffset": 395232,
      "target": 34962
    },
    {
      "buffer": 0,
      "byteLength": 768,
      "byteOffset": 396000,
      "target": 34962
    },
    {
      "buffer": 0,
      "byteLength": 1536,
      "byteOffset": 396768,
      "target": 34962
    },
    {
      "buffer": 0,
      "byteLength": 9780,
      "byteOffset": 398304,
      "target": 34963
    },
    {
      "buffer": 0,
      "byteLength": 15564,
      "byteOffset": 408084,
      "target": 34962
    },
    {
      "buffer": 0,
      "byteLength": 15564,
      "byteOffset": 423648,
      "target": 34962
    },
    {
      "buffer": 0,
      "byteLength": 10376,
      "byteOffset": 439212,
      "target": 34962
    },
    {
      "buffer": 0,
      "byteLength": 10376,
      "byteOffset": 449588,
      "target": 34962
    },
    {
      "buffer": 0,
      "byteLength": 10376,
      "byteOffset": 459964,
      "target": 34962
    },
    {
      "buffer": 0,
      "byteLength": 20752,
      "byteOffset": 470340,
      "target": 34962
    },
    {
      "buffer": 0,
      "byteLength": 21528,
      "byteOffset": 491092,
      "target": 34963
    },
    {
      "buffer": 0,
      "byteLength": 43104,
      "byteOffset": 512620,
      "target": 34962
    },
    {
      "buffer": 0,
      "byteLength": 43104,
      "byteOffset": 555724,
      "target": 34962
    },
    {
      "buffer": 0,
      "byteLength": 28736,
      "byteOffset": 598828,
      "target": 34962
    },
    {
      "buffer": 0,
      "byteLength": 28736,
      "byteOffset": 627564,
      "target": 34962
    },
    {
      "buffer": 0,
      "byteLength": 28736,
      "byteOffset": 656300,
      "target": 34962
    },
    {
      "buffer": 0,
      "byteLength": 57472,
      "byteOffset": 685036,
      "target": 34962
    },
    {
      "buffer": 0,
      "byteLength": 1476,
      "byteOffset": 742508,
      "target": 34963
    },
    {
      "buffer": 0,
      "byteLength": 3048,
      "byteOffset": 743984,
      "target": 34962
    },
    {
      "buffer": 0,
      "byteLength": 3048,
      "byteOffset": 747032,
      "target": 34962
    },
    {
      "buffer": 0,
      "byteLength": 2032,
      "byteOffset": 750080,
      "target": 34962
    },
    {
      "buffer": 0,
      "byteLength": 2032,
      "byteOffset": 752112,
      "target": 34962
    },
    {
      "buffer": 0,
      "byteLength": 2032,
      "byteOffset": 754144,
      "target": 34962
    },
    {
      "buffer": 0,
      "byteLength": 4064,
      "byteOffset": 756176,
      "target": 34962
    },
    {
      "buffer": 0,
      "byteLength": 1272,
      "byteOffset": 760240,
      "target": 34963
    },
    {
      "buffer": 0,
      "byteLength": 3024,
      "byteOffset": 761512,
      "target": 34962
    },
    {
      "buffer": 0,
      "byteLength": 3024,
      "byteOffset": 764536,
      "target": 34962
    },
    {
      "buffer": 0,
      "byteLength": 2016,
      "byteOffset": 767560,
      "target": 34962
    },
    {
      "buffer": 0,
      "byteLength": 2016,
      "byteOffset": 769576,
      "target": 34962
    },
    {
      "buffer": 0,
      "byteLength": 2016,
      "byteOffset": 771592,
      "target": 34962
    },
    {
      "buffer": 0,
      "byteLength": 4032,
      "byteOffset": 773608,
      "target": 34962
    },
    {
      "buffer": 0,
      "byteLength": 8,
      "byteOffset": 777640
    },
    {
      "buffer": 0,
      "byteLength": 24,
      "byteOffset": 777648
    },
    {
      "buffer": 0,
      "byteLength": 8,
      "byteOffset": 777672
    },
    {
      "buffer": 0,
      "byteLength": 32,
      "byteOffset": 777680
    },
    {
      "buffer": 0,
      "byteLength": 8,
      "byteOffset": 777712
    },
    {
      "buffer": 0,
      "byteLength": 24,
      "byteOffset": 777720
    },
    {
      "buffer": 0,
      "byteLength": 308,
      "byteOffset": 777744
    },
    {
      "buffer": 0,
      "byteLength": 1232,
      "byteOffset": 778052
    },
    {
      "buffer": 0,
      "byteLength": 8,
      "byteOffset": 779284
    },
    {
      "buffer": 0,
      "byteLength": 24,
      "byteOffset": 779292
    },
    {
      "buffer": 0,
      "byteLength": 8,
      "byteOffset": 779316
    },
    {
      "buffer": 0,
      "byteLength": 32,
      "byteOffset": 779324
    },
    {
      "buffer": 0,
      "byteLength": 8,
      "byteOffset": 779356
    },
    {
      "buffer": 0,
      "byteLength": 24,
      "byteOffset": 779364
    },
    {
      "buffer": 0,
      "byteLength": 308,
      "byteOffset": 779388
    },
    {
      "buffer": 0,
      "byteLength": 1232,
      "byteOffset": 779696
    },
    {
      "buffer": 0,
      "byteLength": 64,
      "byteOffset": 780928
    }
  ],
  "materials": [
    {
      "name": "Phone_AO",
      "doubleSided": true,
      "pbrMetallicRoughness": {
        "baseColorFactor": [
          0.0,
          0.0,
          0.0,
          1.0
        ],
        "metallicFactor": 0.0
      }
    },
    {
      "name": "Phone_camera",
      "doubleSided": true,
      "pbrMetallicRoughness": {
        "baseColorFactor": [
          0.0,
          0.0,
          0.0,
          1.0
        ],
        "roughnessFactor": 0.14787843823432923
      }
    },
    {
      "name": "Phone_Body",
      "doubleSided": true,
      "pbrMetallicRoughness": {
        "baseColorFactor": [
          0.0,
          0.0,
          0.0,
          1.0
        ],
        "metallicFactor": 0.0,
        "roughnessFactor": 0.5527864098548889
      }
    },
    {
      "name": "Phone_Metal",
      "doubleSided": true,
      "pbrMetallicRoughness": {
        "baseColorFactor": [
          0.800000011920929,
          0.800000011920929,
          0.800000011920929,
          1.0
        ],
        "roughnessFactor": 0.12045454978942871
      }
    },
    {
      "name": "Phone_Screen",
      "alphaMode": "BLEND",
      "doubleSided": true,
      "pbrMetallicRoughness": {
        "baseColorFactor": [
          0.01466972567141056,
          0.01466972567141056,
          0.01466972567141056,
          1.0
        ],
        "metallicFactor": 0.8786232471466065,
        "roughnessFactor": 0.0
      },
      "extensions": {
        "KHR_materials_ior": {
          "ior": 1.7999999523162842
        }
      }
    }
  ],
  "meshes": [
    {
      "primitives": [
        {
          "attributes": {
            "JOINTS_0": 47,
            "NORMAL": 44,
            "POSITION": 43,
            "TEXCOORD_0": 45,
            "TEXCOORD_1": 46,
            "WEIGHTS_0": 48
          },
          "indices": 42,
          "material": 4,
          "mode": 4
        },
        {
          "attributes": {
            "JOINTS_0": 33,
            "NORMAL": 30,
            "POSITION": 29,
            "TEXCOORD_0": 31,
            "TEXCOORD_1": 32,
            "WEIGHTS_0": 34
          },
          "indices": 28,
          "material": 3,
          "mode": 4
        },
        {
          "attributes": {
            "JOINTS_0": 12,
            "NORMAL": 9,
            "POSITION": 8,
            "TEXCOORD_0": 10,
            "TEXCOORD_1": 11,
            "WEIGHTS_0": 13
          },
          "indices": 7,
          "material": 2,
          "mode": 4
        },
        {
          "attributes": {
            "JOINTS_0": 19,
            "NORMAL": 16,
            "POSITION": 15,
            "TEXCOORD_0": 17,
            "TEXCOORD_1": 18,
            "WEIGHTS_0": 20
          },
          "indices": 14,
          "material": 1,
          "mode": 4
        },
        {
          "attributes": {
            "JOINTS_0": 26,
            "NORMAL": 23,
            "POSITION": 22,
            "TEXCOORD_0": 24,
            "TEXCOORD_1": 25,
            "WEIGHTS_0": 27
          },
          "indices": 21,
          "material": 3,
          "mode": 4
        },
        {
          "attributes": {
            "JOINTS_0": 40,
            "NORMAL": 37,
            "POSITION": 36,
            "TEXCOORD_0": 38,
            "TEXCOORD_1": 39,
            "WEIGHTS_0": 41
          },
          "indices": 35,
          "material": 2,
          "mode": 4
        },
        {
          "attributes": {
            "JOINTS_0": 5,
            "NORMAL": 2,
            "POSITION": 1,
            "TEXCOORD_0": 3,
            "TEXCOORD_1": 4,
            "WEIGHTS_0": 6
          },
          "indices": 0,
          "material": 0,
          "mode": 4
        }
      ],
      "name": "Mesh"
    }
  ],
  "nodes": [
    {
      "extras": {
        "meta_spatial": {
          "entity_id": "Bone"
        }
      },
      "name": "Bone"
    },
    {
      "mesh": 0,
      "skin": 0,
      "extras": {
        "meta_spatial": {
          "entity_id": "Phone1"
        }
      },
      "name": "Phone"
    },
    {
      "translation": [
        0.0017216093838214875,
        -0.25,
        0.020000001415610315
      ],
      "rotation": [
        -0.0,
        1.0,
        -0.0,
        -4.371138828673793e-8
      ],
      "extras": {
        "meta_spatial": {
          "entity_id": "Phone_Rig"
        }
      },
      "name": "Phone_Rig",
      "children": [
        1,
        0
      ]
    }
  ],
  "scene": 0,
  "scenes": [
    {
      "nodes": [
        2
      ]
    }
  ],
  "skins": [
    {
      "joints": [
        0
      ],
      "inverseBindMatrices": 65,
      "name": "Phone_Rig"
    }
  ],
  "buffers": [
    {
      "byteLength": 780992,
      "uri": "data:application/octet-stream;base64,"
    }
  ]
}
